<?xml version="1.0" encoding="UTF-8" standalone="no"?><!DOCTYPE svg PUBLIC "-//W3C//DTD SVG 1.1//EN" "http://www.w3.org/Graphics/SVG/1.1/DTD/svg11.dtd"><svg width="100%" height="100%" viewBox="0 0 568 374" version="1.1" xmlns="http://www.w3.org/2000/svg" xmlns:xlink="http://www.w3.org/1999/xlink" xml:space="preserve" xmlns:serif="http://www.serif.com/" style="fill-rule:evenodd;clip-rule:evenodd;stroke-linejoin:round;stroke-miterlimit:2;"><g><path d="M419.322,58.695c-0,-32.395 -26.3,-58.695 -58.695,-58.695l-155.611,0c-32.394,0 -58.694,26.3 -58.694,58.695l-0,154.905c-0,32.394 26.3,58.695 58.694,58.695l155.611,-0c32.395,-0 58.695,-26.301 58.695,-58.695l-0,-154.905Z" style="fill:#2f3857;"/><path d="M237.778,213.371c0.004,0.015 0.008,0.022 0.013,0.02c0.004,-0.002 0,-0.009 -0.013,-0.02c-0.258,-0.997 0.013,-37.367 0.013,-37.367l91.705,-0l0,35.271l32.45,-17.636l-0,-88.883l-77.597,-45.853l-78.303,45.853l0,89.589c0,-0 30.975,18.312 31.732,19.026Zm46.218,-116.375l44.795,25.395l-0,21.869l-89.589,-0l-0,-22.574l44.794,-24.69Z" style="fill:#fff;"/></g><text x="-0.382px" y="372.647px" style="font-family:'SegoeUI-Bold', 'Segoe UI', sans-serif;font-weight:700;font-size:78.212px;fill:#2f3857;">ÁGIL SISTEMAS</text></svg>